<svg id="Dinger_Logo_Black" data-name="Dinger Logo Black" xmlns="http://www.w3.org/2000/svg" xmlns:xlink="http://www.w3.org/1999/xlink" width="57.325" height="70.482" viewBox="0 0 57.325 70.482">
  <defs>
    <clipPath id="clip-path">
      <rect id="Rectangle_1084" data-name="Rectangle 1084" width="57.325" height="70.482"/>
    </clipPath>
  </defs>
  <g id="Group_5193" data-name="Group 5193" transform="translate(0)" clip-path="url(#clip-path)">
    <path id="Path_3122" data-name="Path 3122" d="M.164,35.876a1.028,1.028,0,0,1,.312-.758,1.029,1.029,0,0,1,.758-.312H4.46a5.232,5.232,0,0,1,2.074.416,5.351,5.351,0,0,1,1.694,1.137,5.474,5.474,0,0,1,1.145,1.687,5.281,5.281,0,0,1,.007,4.125,5.348,5.348,0,0,1-2.825,2.817,5.179,5.179,0,0,1-2.067.416H1.234a1.028,1.028,0,0,1-.758-.312,1.033,1.033,0,0,1-.312-.758V35.876ZM2.3,43.651H4.192a3.4,3.4,0,0,0,1.376-.283,3.588,3.588,0,0,0,1.121-.758,3.636,3.636,0,0,0,.759-1.122,3.5,3.5,0,0,0,0-2.75,3.573,3.573,0,0,0-1.88-1.88,3.407,3.407,0,0,0-1.376-.283H2.3Z" transform="translate(6.991 11.919)" fill="#2a2b2a"/>
  </g>
  <g id="Group_5194" data-name="Group 5194" transform="translate(0)" clip-path="url(#clip-path)">
    <path id="Path_3123" data-name="Path 3123" d="M11.642,36.788a1.094,1.094,0,0,1-1.115-1.116,1.062,1.062,0,0,1,.32-.78,1.08,1.08,0,0,1,.794-.32,1.091,1.091,0,0,1,1.1,1.1,1.078,1.078,0,0,1-.32.8,1.06,1.06,0,0,1-.781.32m0,8.889a.99.99,0,0,1-1.01-1.01V38.676a.99.99,0,0,1,1.01-1.01.961.961,0,0,1,.707.29.978.978,0,0,1,.289.72v5.991a.978.978,0,0,1-.289.721.963.963,0,0,1-.707.29" transform="translate(7.865 11.899)" fill="#2a2b2a"/>
  </g>
  <g id="Group_5195" data-name="Group 5195" transform="translate(0)" clip-path="url(#clip-path)">
    <path id="Path_3124" data-name="Path 3124" d="M15.206,37.424a.949.949,0,0,1,.937.817l.045.669a3.048,3.048,0,0,1,1.04-1.077,2.643,2.643,0,0,1,1.427-.408,2.508,2.508,0,0,1,1.033.215,2.68,2.68,0,0,1,.84.587,2.833,2.833,0,0,1,.773,1.948v4.311a.951.951,0,0,1-1.9,0v-3.9a1.627,1.627,0,0,0-.349-1.138,1.3,1.3,0,0,0-1-.379,1.757,1.757,0,0,0-1.189.409,1.624,1.624,0,0,0-.565,1.033v3.91a.976.976,0,0,1-.291.721.961.961,0,0,1-.706.29.99.99,0,0,1-1.01-1.011v-6.08a.914.914,0,0,1,.922-.922" transform="translate(8.182 12.139)" fill="#2a2b2a"/>
  </g>
  <g id="Group_5196" data-name="Group 5196" transform="translate(0)" clip-path="url(#clip-path)">
    <path id="Path_3125" data-name="Path 3125" d="M22.167,41.081a4.121,4.121,0,0,1,.245-1.427,3.6,3.6,0,0,1,.676-1.16,3.346,3.346,0,0,1,1-.779,2.626,2.626,0,0,1,1.22-.29,2.705,2.705,0,0,1,1.331.341,3.254,3.254,0,0,1,1.048.922l.015-.431a.806.806,0,0,1,.29-.595.937.937,0,0,1,.632-.237.914.914,0,0,1,.922.921v6.228a4.08,4.08,0,0,1-.29,1.606,3.356,3.356,0,0,1-.78,1.146,3.251,3.251,0,0,1-1.146.691,4.126,4.126,0,0,1-1.382.23,3.984,3.984,0,0,1-1.13-.15,3.211,3.211,0,0,1-.848-.371,1.228,1.228,0,0,1-.408-.386.793.793,0,0,1-.112-.4.9.9,0,0,1,.246-.616.788.788,0,0,1,.616-.276.906.906,0,0,1,.565.208,1.6,1.6,0,0,0,.447.238,1.645,1.645,0,0,0,.549.089,1.606,1.606,0,0,0,.647-.133,1.831,1.831,0,0,0,.535-.357,1.652,1.652,0,0,0,.364-.528,1.614,1.614,0,0,0,.134-.662V43.669a3.232,3.232,0,0,1-1,.8,2.718,2.718,0,0,1-1.241.29,2.643,2.643,0,0,1-1.22-.29,3.293,3.293,0,0,1-1-.788,3.691,3.691,0,0,1-.676-1.166,4.141,4.141,0,0,1-.244-1.429m1.933.074a2.8,2.8,0,0,0,.133.878,2.159,2.159,0,0,0,.372.691,1.858,1.858,0,0,0,.551.461,1.392,1.392,0,0,0,1.338,0,1.857,1.857,0,0,0,.551-.461,2.145,2.145,0,0,0,.371-.691,2.735,2.735,0,0,0,.134-.878,2.708,2.708,0,0,0-.134-.862,2.269,2.269,0,0,0-.371-.7,1.757,1.757,0,0,0-.551-.46,1.453,1.453,0,0,0-1.338,0,1.757,1.757,0,0,0-.551.46,2.277,2.277,0,0,0-.372.7,2.746,2.746,0,0,0-.133.862" transform="translate(8.847 12.139)" fill="#2a2b2a"/>
  </g>
  <g id="Group_5197" data-name="Group 5197" transform="translate(0)" clip-path="url(#clip-path)">
    <path id="Path_3126" data-name="Path 3126" d="M35.8,43.161a.808.808,0,0,1,.58.244.792.792,0,0,1,.253.587.825.825,0,0,1-.1.371,1.288,1.288,0,0,1-.349.4,2.955,2.955,0,0,1-.93.483A3.937,3.937,0,0,1,34,45.435a3.837,3.837,0,0,1-1.493-.282,3.362,3.362,0,0,1-1.167-.8,3.7,3.7,0,0,1-.765-1.249,4.5,4.5,0,0,1-.276-1.6,4.546,4.546,0,0,1,.3-1.687,3.922,3.922,0,0,1,.8-1.278,3.51,3.51,0,0,1,1.175-.809A3.63,3.63,0,0,1,34,37.438a3.568,3.568,0,0,1,1.532.327,3.966,3.966,0,0,1,1.2.846,3.875,3.875,0,0,1,.773,1.167,3.262,3.262,0,0,1,.275,1.286,1.4,1.4,0,0,1-.252.929.766.766,0,0,1-.595.29H32.319a1.641,1.641,0,0,0,.536,1.071,1.746,1.746,0,0,0,1.219.416,1.8,1.8,0,0,0,1.144-.372.935.935,0,0,1,.58-.237m.045-2.141a1.925,1.925,0,0,0-.148-.765,1.816,1.816,0,0,0-.41-.6,2.037,2.037,0,0,0-.593-.4A1.706,1.706,0,0,0,34,39.1a1.638,1.638,0,0,0-.691.148,1.8,1.8,0,0,0-.557.4,1.907,1.907,0,0,0-.38.6,2.035,2.035,0,0,0-.14.765Z" transform="translate(9.532 12.141)" fill="#2a2b2a"/>
  </g>
  <g id="Group_5198" data-name="Group 5198" transform="translate(0)" clip-path="url(#clip-path)">
    <path id="Path_3127" data-name="Path 3127" d="M40.685,38.762c.079-.119.178-.257.3-.416a3.286,3.286,0,0,1,.4-.438,2.509,2.509,0,0,1,.46-.342,1.022,1.022,0,0,1,.513-.141.918.918,0,0,1,.624.252.84.84,0,0,1,.283.655.818.818,0,0,1-.223.579,1.2,1.2,0,0,1-.654.328,2.205,2.205,0,0,0-.55.208,1.731,1.731,0,0,0-.506.408,2.26,2.26,0,0,0-.372.632,2.36,2.36,0,0,0-.148.878v3.063a.976.976,0,0,1-.29.721.963.963,0,0,1-.706.29.989.989,0,0,1-1.011-1.01v-6.08a.913.913,0,0,1,.921-.922.907.907,0,0,1,.624.237.865.865,0,0,1,.3.595Z" transform="translate(10.249 12.139)" fill="#2a2b2a"/>
  </g>
  <g id="Group_5199" data-name="Group 5199" transform="translate(0)" clip-path="url(#clip-path)">
    <path id="Path_3128" data-name="Path 3128" d="M29.725,47.054a.655.655,0,0,1,1.309,0,.655.655,0,0,1-1.309,0m1.237,0a.582.582,0,1,0-.582.578.549.549,0,0,0,.582-.578" transform="translate(9.484 12.897)" fill="#2a2b2a"/>
  </g>
  <g id="Group_5200" data-name="Group 5200" transform="translate(0)" clip-path="url(#clip-path)">
    <path id="Path_3129" data-name="Path 3129" d="M31.2,46.421h.068l.829,1.163,0,0c-.008-.131-.01-.264-.01-.395v-.766h.068v1.256h-.068l-.83-1.165,0,0c.007.128.01.237.01.383v.779H31.2V46.421Z" transform="translate(9.609 12.898)" fill="#2a2b2a"/>
  </g>
  <g id="Group_5201" data-name="Group 5201" transform="translate(0)" clip-path="url(#clip-path)">
    <path id="Path_3130" data-name="Path 3130" d="M32.426,46.421h.846v.056h-.779v.561h.672v.054h-.672v.53H33.3v.056h-.879Z" transform="translate(9.712 12.898)" fill="#2a2b2a"/>
  </g>
  <g id="Group_5202" data-name="Group 5202" transform="translate(0)" clip-path="url(#clip-path)">
    <path id="Path_3131" data-name="Path 3131" d="M33.9,46.421h.842v.056h-.775v.571h.666V47.1h-.666v.575H33.9Z" transform="translate(9.837 12.898)" fill="#2a2b2a"/>
  </g>
  <g id="Group_5203" data-name="Group 5203" transform="translate(0)" clip-path="url(#clip-path)">
    <path id="Path_3132" data-name="Path 3132" d="M34.787,47.054a.655.655,0,0,1,1.309,0,.655.655,0,0,1-1.309,0m1.236,0a.582.582,0,1,0-.581.578.548.548,0,0,0,.581-.578" transform="translate(9.911 12.897)" fill="#2a2b2a"/>
  </g>
  <g id="Group_5204" data-name="Group 5204" transform="translate(0)" clip-path="url(#clip-path)">
    <path id="Path_3133" data-name="Path 3133" d="M36.9,47.193l.287.484h-.074l-.276-.472a.363.363,0,0,1-.067.005h-.438v.467h-.068V46.421h.506a.415.415,0,0,1,.429.395.407.407,0,0,1-.3.377m.23-.377a.344.344,0,0,0-.372-.339h-.426v.679h.426a.344.344,0,0,0,.372-.339" transform="translate(10.036 12.898)" fill="#2a2b2a"/>
  </g>
  <g id="Group_5205" data-name="Group 5205" transform="translate(0)" clip-path="url(#clip-path)">
    <path id="Path_3134" data-name="Path 3134" d="M38.59,47.324h-.714l-.147.354h-.07l.534-1.264h.084l.531,1.264h-.07Zm-.024-.055-.335-.794h0l-.331.794Z" transform="translate(10.153 12.898)" fill="#2a2b2a"/>
  </g>
  <g id="Group_5206" data-name="Group 5206" transform="translate(0)" clip-path="url(#clip-path)">
    <path id="Path_3135" data-name="Path 3135" d="M38.937,46.421H39v1.2h.7v.056h-.77Z" transform="translate(10.261 12.898)" fill="#2a2b2a"/>
  </g>
  <g id="Group_5207" data-name="Group 5207" transform="translate(0)" clip-path="url(#clip-path)">
    <path id="Path_3136" data-name="Path 3136" d="M39.836,46.421H39.9v1.2h.7v.056h-.771Z" transform="translate(10.337 12.898)" fill="#2a2b2a"/>
  </g>
  <g id="Group_5208" data-name="Group 5208" transform="translate(0)" clip-path="url(#clip-path)">
    <path id="Path_3137" data-name="Path 3137" d="M40.671,47.549a.048.048,0,0,1,.05-.048.05.05,0,0,1,.051.048.048.048,0,0,1-.051.049.048.048,0,0,1-.05-.049" transform="translate(10.407 12.989)" fill="#2a2b2a"/>
  </g>
  <g id="Group_5209" data-name="Group 5209" transform="translate(0)" clip-path="url(#clip-path)">
    <path id="Path_3138" data-name="Path 3138" d="M12.245.187H18.48a17.344,17.344,0,0,1,10.446,3.72,22.467,22.467,0,0,1,2.188,2.044A17.052,17.052,0,0,1,35.692,17.42v.552q0,6.624-5.212,12.184a16.53,16.53,0,0,1-3.414,2.575,17.208,17.208,0,0,1-2.474,1.247,15.556,15.556,0,0,1-5.111,1.165H11.836a2.574,2.574,0,0,1-1.472-.715,2.934,2.934,0,0,1-.94-2.167,2.874,2.874,0,0,1,1.7-2.637,3.3,3.3,0,0,1,1.329-.265h5.765a11.251,11.251,0,0,0,7.973-3.149,14.524,14.524,0,0,0,1.983-2.453,11.323,11.323,0,0,0,1.7-5.745V17.4a11.305,11.305,0,0,0-2.7-7.134,11.586,11.586,0,0,0-9.281-4.232h-2.6v4.743A2.951,2.951,0,0,1,13.124,13.8a4.006,4.006,0,0,1-.736.082h-.02a2.883,2.883,0,0,1-2.7-1.738,3.274,3.274,0,0,1-.245-1.267V3.151A2.871,2.871,0,0,1,11.284.391a2.6,2.6,0,0,1,.962-.2" transform="translate(7.772 8.999)" fill="#2a2b2a"/>
  </g>
  <g id="Group_5210" data-name="Group 5210" transform="translate(0)" clip-path="url(#clip-path)">
    <path id="Path_3139" data-name="Path 3139" d="M12.429,17.356h.163a3.026,3.026,0,0,1,2.474,1.35,3.1,3.1,0,0,1,.532,1.757,3.022,3.022,0,0,1-1.677,2.719,3.454,3.454,0,0,1-1.39.347A3.111,3.111,0,0,1,9.69,21.71a3.621,3.621,0,0,1-.266-1.289A3.056,3.056,0,0,1,11.079,17.7a3.124,3.124,0,0,1,1.35-.347" transform="translate(7.772 10.447)" fill="#f0c54d"/>
  </g>
</svg>
