<svg xmlns="http://www.w3.org/2000/svg" width="79.235" height="86.145" viewBox="0 0 79.235 86.145">
  <g id="Group_108" data-name="Group 108" transform="translate(-674.781 -64.483)">
    <path id="Path_151" data-name="Path 151" d="M740.9,122.47c8.9-19.215,11.311-31.363,3.03-50.949-1.956-4.624-3.719-6.992-5.242-7.038-1.246-.038-2.382,1.1-3.12,2.066-1.63,2.127-2.959,5.492-2.558,7.732-3.186,3.335-1.9,8.069-1.419,9.465-2.018,2.571-1.93,4.543-1.686,5.51-1.885,1.253-2.749,3.76-3.142,5.637a33.5,33.5,0,0,0-2.973-4.22C712.6,77.253,702.929,71.666,699.5,73.225a3.76,3.76,0,0,0-1.863,2.5,17.4,17.4,0,0,0,1.225,11.377c.29,5,1.872,7.8,2.525,8.755a11.569,11.569,0,0,0-.355,8.169c-.691,4.762.951,7.736,2.018,9.109a15.217,15.217,0,0,0-7.163.493,19.828,19.828,0,0,0-10.268,9.724,11.81,11.81,0,0,0-1.253,8.553,6.611,6.611,0,0,0-.189,4.623c.233.889.329,1.341-.035,1.913-.383.606-2.083,1.552-3.582,2.388-2.942,1.639-5.984,3.334-5.769,5.378a1.5,1.5,0,0,0,.828,1.341c1.05.471,2.475-.552,3.984-1.636a8.731,8.731,0,0,1,1.74-1.094,5.92,5.92,0,0,0,.875-.26c1.948-.672,6-2.072,9.566,3.876.009.013.016.026.026.038a4.178,4.178,0,0,0,4.389,2.084,8.875,8.875,0,0,0,2.523-.921c4.165-2.147,1.663-.955,7.116-3.8a139.31,139.31,0,0,1,12.7-6.031l4.658-1.58a22.484,22.484,0,0,1,4.841-.694,18.848,18.848,0,0,1,1.252-1.818,79.313,79.313,0,0,1,9.771-10.431,7.735,7.735,0,0,1,1.217-.861,1.847,1.847,0,0,1-.072-.513A1.827,1.827,0,0,1,740.9,122.47Z" fill="#434343" fill-rule="evenodd"/>
    <path id="Path_152" data-name="Path 152" d="M733.027,150.379a.482.482,0,0,1-.535.2c-7.879-2.059-21.044,4.537-27.058,8.236-1.147,1.021-3.832,1.635-5.34,1.932a3.885,3.885,0,0,1-3.728-1.315,21.373,21.373,0,0,1-3.715-6.227.3.3,0,1,0-.034-.6.475.475,0,0,1-.27-.306,12.633,12.633,0,0,1-.479-5.464,14.8,14.8,0,0,1-1.006-4.631.481.481,0,0,1,.2-.424c.1-.075.212-.152.323-.23a.5.5,0,0,1-.541-.5,16.254,16.254,0,0,1,1.859-7.032.55.55,0,0,1,.067-.1,18.129,18.129,0,0,1,6.877-4.938l.022-.009c6.01-2.069,13.839,1.3,19.086,4.148a93.458,93.458,0,0,1,12.063,7.949c1.777,1.359,3.611,2.806,5.278,4.3a.2.2,0,0,0,.068.041.491.491,0,0,1,.219.772C732.894,150.495,737.206,144.162,733.027,150.379Z" transform="translate(-3.464 -13.764)" fill="#f1c232" fill-rule="evenodd"/>
    <path id="Path_153" data-name="Path 153" d="M751.141,78.735c-1.749-2.844,1.829-6.1,2.506-5.114,11.2,16.315,6.9,37.206-.311,54.352-.739.732-3.248,3.324-3.373,3.279a.483.483,0,0,1-.324-.442,105.5,105.5,0,0,0-1.564-13.277,71.565,71.565,0,0,0-3.693-13.517c-2.014-5.14-2.786-7.782,2.815-12.075a.477.477,0,0,1,.415-.087.492.492,0,0,1,.169.075c-.69-1.453.916-5.857,1.806-4.983a16.259,16.259,0,0,0-.872-1.392.473.473,0,0,1-.089-.275C748.613,84.269,749.727,77.969,751.141,78.735Z" transform="translate(-14.681 -1.931)" fill="#f1c232" fill-rule="evenodd"/>
    <g id="Group_105" data-name="Group 105" transform="translate(725.826 104.525)">
      <path id="Path_154" data-name="Path 154" d="M753.088,141.679a79.309,79.309,0,0,0-9.771,10.431c-4.806,6.18-3.493,12.029-2.578,12.487s.908-7.754,3.883-10.5,3.659-4.408,3.659-4.408a36.371,36.371,0,0,0,4.578-2.517,7.821,7.821,0,0,0,2.975-5.493C755.834,139.848,754.461,140.535,753.088,141.679Z" transform="translate(-739.855 -120.923)" fill="#434343" fill-rule="evenodd"/>
      <path id="Path_155" data-name="Path 155" d="M761.846,139.736a1.831,1.831,0,1,0-1.831,1.831A1.831,1.831,0,0,0,761.846,139.736Z" transform="translate(-743.806 -120.353)" fill="#434343" fill-rule="evenodd"/>
      <g id="Group_104" data-name="Group 104" transform="translate(16.602 0)">
        <g id="Group_101" data-name="Group 101" transform="translate(0 1.224)">
          <path id="Path_156" data-name="Path 156" d="M761.019,134.615l.305.34c.341-.267,8.372-6.552,9.865-9.3a13.147,13.147,0,0,0,1.118-6.685l-.456.048a12.936,12.936,0,0,1-1.064,6.418c-.938,1.725-4.72,5.034-7.286,7.166,1.812-2.046,4.208-4.975,4.875-6.852a42.616,42.616,0,0,0,1.512-8.629l-.456-.034a43.239,43.239,0,0,1-1.487,8.511C766.89,128.569,761.078,134.555,761.019,134.615Z" transform="translate(-761.019 -117.09)" fill="#434343" fill-rule="evenodd"/>
        </g>
        <g id="Group_102" data-name="Group 102" transform="translate(10.531 2.083)">
          <path id="Path_157" data-name="Path 157" d="M774.9,118.185c-.289.02-.491.506-.451,1.085s.308,1.032.6,1.011.491-.505.45-1.084S775.189,118.165,774.9,118.185Z" transform="translate(-774.444 -118.184)" fill="#125563" fill-rule="evenodd"/>
        </g>
        <g id="Group_103" data-name="Group 103" transform="translate(8.228)">
          <path id="Path_158" data-name="Path 158" d="M772.272,115.535c-.284-.057-.608.357-.722.926s.022,1.076.307,1.134.608-.357.722-.926S772.557,115.592,772.272,115.535Z" transform="translate(-771.509 -115.529)" fill="#125563" fill-rule="evenodd"/>
        </g>
      </g>
    </g>
    <g id="Group_106" data-name="Group 106" transform="translate(735.359 84.715)">
      <path id="Path_159" data-name="Path 159" d="M752.008,129.833c2.876-10.606,4.841-20.42,1.077-30.327-.025-.068-.546-2.24-.554-2.312-.81-7.606,5.968-10.372,8.024-.846,2.984,13.821-2.17,28.939-8.242,41.217C752.275,135.112,752.184,132.505,752.008,129.833Z" transform="translate(-752.008 -90.276)" fill="#434343" fill-rule="evenodd"/>
      <path id="Path_160" data-name="Path 160" d="M753.765,132.943q9.661-21.718,5.787-37.24c-1.815-7.269-7.96-4.185-5.56,3.486q4.123,13.182-1.807,33.38.045.934.078,1.852C752.815,133.865,753.32,133.37,753.765,132.943Z" transform="translate(-752.046 -90.557)" fill="#ffe599" fill-rule="evenodd"/>
    </g>
    <path id="Path_161" data-name="Path 161" d="M752.957,107.705c2.086,8.72,1.174,18.4-.8,27.341-.566.54-1.529,1.5-2.271,2.257a116.513,116.513,0,0,0-4.533-24.457c-1.789-5.593-1.219-8.855.233-10.306,1.252-1.25,3.331-.73,4.674.1C751.972,103.7,752.416,105.445,752.957,107.705Z" transform="translate(-14.972 -8.044)" fill="#434343" fill-rule="evenodd"/>
    <path id="Path_162" data-name="Path 162" d="M746.076,112.628q.44,1.164.818,2.4a79.365,79.365,0,0,1,4.351,15.644c.086.918.328,2.185.555,3.474,2.331-10.779,2.564-19.974.155-27.42-1.857-5.738-9.749-4.32-5.879,5.905Zm3.341,25.346-.006.34.167-.176C749.525,138.086,749.471,138.032,749.417,137.974Z" transform="translate(-15.143 -8.384)" fill="#ffe599" fill-rule="evenodd"/>
    <path id="Path_163" data-name="Path 163" d="M711.092,86.169c1.828-1.115,4.729.155,7.8,2.379,13.634,9.861,19.792,21.574,22.772,37.891.179,1.9,1.024,5.307,1.024,7.279-.407.424-1.246,1.309-1.683,1.785a7.245,7.245,0,0,1-1.638-1.381A106.052,106.052,0,0,0,727.2,125.2a55.667,55.667,0,0,0-12.259-5.976c-5.035-1.6-4.448-10.457-2.956-10.241-1.319-1.108-.169-6.922,1.3-8.407a.482.482,0,0,1,.28-.143C710.743,99.342,709.264,87.284,711.092,86.169Z" transform="translate(-7.654 -4.586)" fill="#f1c232" fill-rule="evenodd"/>
    <g id="Group_107" data-name="Group 107" transform="translate(706.139 88.095)">
      <path id="Path_164" data-name="Path 164" d="M738.987,129.423c-3.934-10.261-8.137-19.345-17.02-25.124-.06-.039-1.762-1.486-1.81-1.541-5.142-5.664-1.3-11.9,5.98-5.416,10.563,9.4,15.319,24.647,17.657,38.144C742.316,133.528,740.705,131.477,738.987,129.423Z" transform="translate(-715.412 -94.584)" fill="#434343" fill-rule="evenodd"/>
      <path id="Path_165" data-name="Path 165" d="M742.977,134.325Q738.165,108.431,725,97.451c-5.753-4.8-8.9,1.316-2.433,6.094q11.106,8.212,18.233,28.019C741.551,132.494,742.277,133.417,742.977,134.325Z" transform="translate(-715.666 -94.826)" fill="#ffe599" fill-rule="evenodd"/>
      <path id="Path_166" data-name="Path 166" d="M724.91,108.536c8.606,7.323,14.263,18.682,18.1,29.06a109.3,109.3,0,0,0-21.21-20.422C709.329,108.078,718.74,103.286,724.91,108.536Z" transform="translate(-714.953 -97.123)" fill="#434343" fill-rule="evenodd"/>
      <path id="Path_167" data-name="Path 167" d="M722.286,116.593c7.1,4.632,13.863,12.522,20.721,23.034l.128-.137c-5.207-14.585-11.5-25.275-19.585-31.134C718.666,104.819,713.13,110.619,722.286,116.593Z" transform="translate(-715.319 -97.321)" fill="#ffe599" fill-rule="evenodd"/>
      <path id="Path_168" data-name="Path 168" d="M722.622,119.557c7.573,5.021,14.51,13,19.852,19.988.223.291.624.511.66.869a6.052,6.052,0,0,0,.071.6c-.38.4-.563.591-.973,1.034A86.4,86.4,0,0,0,721.446,127.7c-1.743-.9-3.77-1.346-5.049-2.807C713.474,121.554,713.84,113.733,722.622,119.557Z" transform="translate(-714.757 -99.517)" fill="#434343" fill-rule="evenodd"/>
      <path id="Path_169" data-name="Path 169" d="M720.041,126.422a74.469,74.469,0,0,1,22.977,15.359l.074-.078q-10.56-14.082-19.781-20.54C714.26,114.826,713.784,123.8,720.041,126.422Z" transform="translate(-714.992 -99.836)" fill="#ffe599" fill-rule="evenodd"/>
    </g>
  </g>
</svg>
