<svg width="47" height="32" viewBox="0 0 47 32" fill="none" xmlns="http://www.w3.org/2000/svg">
<path fill-rule="evenodd" clip-rule="evenodd" d="M23.5967 23.1741C22.0079 24.5451 19.947 25.3728 17.695 25.3728C12.6702 25.3728 8.59668 21.252 8.59668 16.1688C8.59668 11.0856 12.6702 6.96484 17.695 6.96484C19.947 6.96484 22.0079 7.79251 23.5967 9.16355C25.1854 7.79251 27.2463 6.96484 29.4983 6.96484C34.5232 6.96484 38.5967 11.0856 38.5967 16.1688C38.5967 21.252 34.5232 25.3728 29.4983 25.3728C27.2463 25.3728 25.1854 24.5451 23.5967 23.1741Z" fill="#ED0006"/>
<path fill-rule="evenodd" clip-rule="evenodd" d="M23.5967 23.1741C25.5529 21.4859 26.7934 18.9739 26.7934 16.1688C26.7934 13.3637 25.5529 10.8517 23.5967 9.16355C25.1854 7.79251 27.2463 6.96484 29.4983 6.96484C34.5232 6.96484 38.5967 11.0856 38.5967 16.1688C38.5967 21.252 34.5232 25.3728 29.4983 25.3728C27.2463 25.3728 25.1854 24.5451 23.5967 23.1741Z" fill="#F9A000"/>
<path fill-rule="evenodd" clip-rule="evenodd" d="M23.5971 9.16406C25.5533 10.8522 26.7938 13.3642 26.7938 16.1693C26.7938 18.9744 25.5533 21.4864 23.5971 23.1745C21.6408 21.4864 20.4004 18.9744 20.4004 16.1693C20.4004 13.3642 21.6408 10.8522 23.5971 9.16406Z" fill="#FF5E00"/>
</svg>
