<svg xmlns="http://www.w3.org/2000/svg" xmlns:xlink="http://www.w3.org/1999/xlink" width="80" height="48" viewBox="0 0 80 48">
  <defs>
    <clipPath id="clip-path">
      <rect id="Rectangle_867" data-name="Rectangle 867" width="80" height="48" transform="translate(131 477)" fill="#fff"/>
    </clipPath>
  </defs>
  <g id="Mask_Group_31" data-name="Mask Group 31" transform="translate(-131 -477)" clip-path="url(#clip-path)">
    <g id="mastercard-2" transform="translate(140.155 477.005)" style="isolation: isolate">
      <path id="Path_1435" data-name="Path 1435" d="M207.9,1922.379v.124h.115a.119.119,0,0,0,.061-.016.053.053,0,0,0,.023-.047.052.052,0,0,0-.023-.045.11.11,0,0,0-.061-.016Zm.116-.087a.215.215,0,0,1,.145.041.132.132,0,0,1,.048.109.125.125,0,0,1-.039.1.19.19,0,0,1-.111.047l.154.176h-.119l-.145-.175H207.9v.175h-.1v-.467h.215Zm-.031.628a.366.366,0,0,0,.145-.031.39.39,0,0,0,0-.719.386.386,0,0,0-.145-.029.4.4,0,0,0-.154.029.388.388,0,0,0-.208.515.368.368,0,0,0,.083.124.4.4,0,0,0,.127.084.391.391,0,0,0,.154.031m0-.895a.515.515,0,0,1,.362.145.5.5,0,0,1,.109.55.52.52,0,0,1-.109.16.551.551,0,0,1-.163.108.516.516,0,0,1-.4,0,.481.481,0,0,1-.272-.274.5.5,0,0,1,.109-.549.485.485,0,0,1,.164-.108.518.518,0,0,1,.2-.041m-47.229-1.8a1.519,1.519,0,1,1,.413,1.146,1.533,1.533,0,0,1-.413-1.146m4.1,0V1917.7h-1.1v.617a1.918,1.918,0,0,0-1.6-.742,2.661,2.661,0,0,0,0,5.317,1.92,1.92,0,0,0,1.6-.742v.615h1.1v-2.532Zm37.195,0a1.52,1.52,0,1,1,.414,1.146,1.533,1.533,0,0,1-.414-1.146m4.1,0v-4.564h-1.1v2.65a1.919,1.919,0,0,0-1.6-.742,2.662,2.662,0,0,0,0,5.317,1.92,1.92,0,0,0,1.6-.742v.615h1.1Zm-27.635-1.673a1.256,1.256,0,0,1,1.281,1.228h-2.627a1.309,1.309,0,0,1,1.345-1.228m.022-.986a2.66,2.66,0,0,0,.074,5.316,3.075,3.075,0,0,0,2.076-.71l-.54-.816a2.412,2.412,0,0,1-1.473.529,1.406,1.406,0,0,1-1.514-1.239h3.758c.01-.137.022-.275.022-.423a2.429,2.429,0,0,0-2.4-2.659m13.291,2.659a1.533,1.533,0,1,1,1.536,1.62,1.518,1.518,0,0,1-1.536-1.62m4.1,0v-2.531h-1.1v.617a1.92,1.92,0,0,0-1.6-.742,2.662,2.662,0,0,0,0,5.317,1.921,1.921,0,0,0,1.6-.741v.615h1.1v-2.532Zm-10.315,0a2.557,2.557,0,0,0,2.7,2.659,2.647,2.647,0,0,0,1.82-.6l-.528-.89a2.225,2.225,0,0,1-1.326.455,1.623,1.623,0,0,1,0-3.242,2.229,2.229,0,0,1,1.326.455l.528-.89a2.649,2.649,0,0,0-1.82-.6,2.557,2.557,0,0,0-2.7,2.659m14.191-2.659a1.493,1.493,0,0,0-1.335.742v-.614h-1.091v5.061h1.1v-2.838c0-.838.359-1.309,1.079-1.309a1.779,1.779,0,0,1,.688.128l.339-1.037a2.336,2.336,0,0,0-.784-.138m-29.507.529a3.783,3.783,0,0,0-2.064-.529c-1.283,0-2.107.615-2.107,1.62,0,.826.615,1.335,1.745,1.494l.521.074c.6.084.889.243.889.529,0,.391-.4.615-1.153.615a2.7,2.7,0,0,1-1.684-.529l-.518.858a3.653,3.653,0,0,0,2.192.658c1.462,0,2.31-.688,2.31-1.652,0-.89-.666-1.356-1.769-1.514l-.519-.076c-.477-.061-.858-.157-.858-.5,0-.371.359-.593.964-.593a3.264,3.264,0,0,1,1.578.436l.477-.89Zm14.2-.528a1.49,1.49,0,0,0-1.334.742v-.615h-1.091v5.062h1.1v-2.838c0-.838.359-1.309,1.079-1.309a1.777,1.777,0,0,1,.688.128l.339-1.037a2.339,2.339,0,0,0-.784-.138m-9.393.126h-1.8v-1.536h-1.113v1.536h-1.027v1.007h1.027V1921c0,1.175.455,1.875,1.758,1.875a2.585,2.585,0,0,0,1.377-.391l-.319-.943a2.034,2.034,0,0,1-.974.291c-.55,0-.727-.339-.727-.847v-2.288h1.808Zm-16.457,5.063v-3.176a1.891,1.891,0,0,0-1.991-2.011,1.959,1.959,0,0,0-1.779.9,1.858,1.858,0,0,0-1.673-.9,1.674,1.674,0,0,0-1.482.752v-.625h-1.1v5.062h1.11v-2.807a1.185,1.185,0,0,1,1.239-1.345c.727,0,1.1.477,1.1,1.334v2.817h1.113v-2.807a1.194,1.194,0,0,1,1.239-1.345c.752,0,1.11.477,1.11,1.335v2.817Z" transform="translate(-147.429 -1875.038)" fill="#231f20"/>
      <path id="Path_1436" data-name="Path 1436" d="M2807.03,1422.061v-.74h-.194l-.222.508-.223-.508h-.193v.74h.137v-.557l.208.481h.146l.208-.483v.558h.135Zm-1.223,0v-.614h.247v-.125h-.63v.125h.247v.614Z" transform="translate(-2745.931 -1391.182)" fill="#f79410"/>
      <path id="Path_1437" data-name="Path 1437" d="M1078.012,222.185h-16.683V192.206h16.683Z" transform="translate(-1038.823 -188.131)" fill="#ff5f00"/>
      <path id="Path_1438" data-name="Path 1438" d="M23.562,19.065A19.034,19.034,0,0,1,30.846,4.072a19.066,19.066,0,1,0,0,29.979,19.034,19.034,0,0,1-7.284-14.987" fill="#eb001b"/>
      <path id="Path_1439" data-name="Path 1439" d="M1485.461,19.065a19.065,19.065,0,0,1-30.848,14.99,19.068,19.068,0,0,0,0-29.979,19.065,19.065,0,0,1,30.848,14.99" transform="translate(-1423.767)" fill="#f79e1b"/>
    </g>
  </g>
</svg>
