<svg xmlns="http://www.w3.org/2000/svg" width="92.215" height="100.256" viewBox="0 0 92.215 100.256">
  <g id="Group_100" data-name="Group 100" transform="translate(-1399.781 -693.483)">
    <path id="Path_132" data-name="Path 132" d="M1415.6,760.97c-10.361-22.363-13.164-36.5-3.527-59.295,2.276-5.382,4.328-8.138,6.1-8.191,1.449-.045,2.772,1.284,3.631,2.4,1.9,2.475,3.443,6.391,2.977,9,3.708,3.882,2.209,9.391,1.651,11.015,2.349,2.992,2.247,5.287,1.963,6.412,2.194,1.458,3.2,4.376,3.656,6.56a39,39,0,0,1,3.46-4.911c13.027-15.619,24.278-22.121,28.267-20.307a4.376,4.376,0,0,1,2.168,2.915c1.124,3.649.427,10-1.426,13.241-.338,5.814-2.178,9.074-2.939,10.189a13.464,13.464,0,0,1,.413,9.507c.805,5.542-1.106,9-2.348,10.6a17.71,17.71,0,0,1,8.337.574A23.075,23.075,0,0,1,1479.936,762a13.744,13.744,0,0,1,1.458,9.954,7.693,7.693,0,0,1,.22,5.38c-.271,1.034-.383,1.56.041,2.227.446.706,2.424,1.807,4.169,2.779,3.423,1.907,6.964,3.88,6.715,6.259a1.744,1.744,0,0,1-.964,1.561c-1.222.548-2.88-.643-4.637-1.9a10.162,10.162,0,0,0-2.025-1.273,6.9,6.9,0,0,1-1.018-.3c-2.268-.782-6.985-2.412-11.133,4.511a.485.485,0,0,1-.03.045c-1.553,2.234-3.327,2.726-5.108,2.426a10.334,10.334,0,0,1-2.937-1.072c-4.847-2.5-1.935-1.112-8.282-4.425a161.9,161.9,0,0,0-14.778-7.019l-5.421-1.839a26.165,26.165,0,0,0-5.634-.808,21.793,21.793,0,0,0-1.457-2.116,92.267,92.267,0,0,0-11.371-12.14,9.052,9.052,0,0,0-1.417-1,2.148,2.148,0,0,0,.084-.6A2.126,2.126,0,0,0,1415.6,760.97Z" transform="translate(-0.555)" fill="#434343" fill-rule="evenodd"/>
    <path id="Path_133" data-name="Path 133" d="M1430.57,782.991a.562.562,0,0,0,.623.234c9.169-2.4,24.491,5.28,31.49,9.586,1.335,1.189,4.46,1.9,6.215,2.248a4.521,4.521,0,0,0,4.337-1.531,24.878,24.878,0,0,0,4.324-7.247.352.352,0,1,1,.04-.7.553.553,0,0,0,.313-.356,14.7,14.7,0,0,0,.558-6.359,17.23,17.23,0,0,0,1.171-5.39.56.56,0,0,0-.236-.493c-.12-.087-.247-.177-.376-.267a.577.577,0,0,0,.629-.585,18.917,18.917,0,0,0-2.164-8.184.646.646,0,0,0-.078-.114,21.1,21.1,0,0,0-8-5.747l-.026-.01c-6.995-2.408-16.106,1.511-22.212,4.828a108.772,108.772,0,0,0-14.039,9.251c-2.068,1.581-4.2,3.266-6.142,5.006a.226.226,0,0,1-.079.047.571.571,0,0,0-.255.9C1430.726,783.126,1425.707,775.756,1430.57,782.991Z" transform="translate(-2.329 -5.56)" fill="#f1c232" fill-rule="evenodd"/>
    <path id="Path_134" data-name="Path 134" d="M1421.124,708.6c2.036-3.31-2.129-7.1-2.917-5.951-13.029,18.988-8.026,43.3.362,63.256.861.852,3.78,3.868,3.926,3.816a.562.562,0,0,0,.377-.514,122.763,122.763,0,0,1,1.82-15.452,83.218,83.218,0,0,1,4.3-15.731c2.344-5.982,3.241-9.057-3.277-14.053a.555.555,0,0,0-.483-.1.571.571,0,0,0-.2.088c.8-1.691-1.066-6.817-2.1-5.8.319-.567.656-1.108,1.014-1.62a.55.55,0,0,0,.1-.32C1424.067,715.043,1422.77,707.71,1421.124,708.6Z" transform="translate(-0.91 -0.78)" fill="#f1c232" fill-rule="evenodd"/>
    <g id="Group_97" data-name="Group 97" transform="translate(1399.781 740.084)">
      <path id="Path_135" data-name="Path 135" d="M1418.545,770.865A92.267,92.267,0,0,1,1429.916,783c5.593,7.192,4.065,14,3,14.533s-1.056-9.024-4.519-12.22-4.259-5.13-4.259-5.13a42.329,42.329,0,0,1-5.328-2.93,9.1,9.1,0,0,1-3.463-6.393C1415.348,768.733,1416.947,769.533,1418.545,770.865Z" transform="translate(-1401.137 -746.708)" fill="#434343" fill-rule="evenodd"/>
      <path id="Path_136" data-name="Path 136" d="M1412.722,769.036a2.131,2.131,0,1,1,2.131,2.131A2.131,2.131,0,0,1,1412.722,769.036Z" transform="translate(-1400.908 -746.478)" fill="#434343" fill-rule="evenodd"/>
      <g id="Group_96" data-name="Group 96">
        <g id="Group_93" data-name="Group 93" transform="translate(0.29 1.425)">
          <path id="Path_137" data-name="Path 137" d="M1413.3,766.486l-.355.4c-.4-.31-9.743-7.626-11.481-10.82-1.752-3.22-1.32-7.6-1.3-7.78l.531.056c0,.043-.432,4.4,1.239,7.469,1.092,2.008,5.493,5.858,8.48,8.34-2.109-2.381-4.9-5.79-5.674-7.974-1.259-3.541-1.739-9.778-1.759-10.043l.531-.039c0,.064.495,6.428,1.73,9.905C1406.464,759.45,1413.228,766.416,1413.3,766.486Z" transform="translate(-1400.099 -746.09)" fill="#434343" fill-rule="evenodd"/>
        </g>
        <g id="Group_94" data-name="Group 94" transform="translate(0 2.424)">
          <path id="Path_138" data-name="Path 138" d="M1400.482,747.185c.337.024.572.589.525,1.263s-.358,1.2-.7,1.177-.572-.588-.524-1.262S1400.145,747.162,1400.482,747.185Z" transform="translate(-1399.781 -747.184)" fill="#125563" fill-rule="evenodd"/>
        </g>
        <g id="Group_95" data-name="Group 95" transform="translate(2.618)">
          <path id="Path_139" data-name="Path 139" d="M1403.053,744.535c.33-.067.707.415.842,1.077s-.026,1.253-.358,1.32-.707-.415-.841-1.077S1402.722,744.6,1403.053,744.535Z" transform="translate(-1402.649 -744.529)" fill="#125563" fill-rule="evenodd"/>
        </g>
      </g>
    </g>
    <g id="Group_98" data-name="Group 98" transform="translate(1410.533 717.03)">
      <path id="Path_140" data-name="Path 140" d="M1422.52,765.314c-3.347-12.344-5.634-23.765-1.253-35.3.029-.079.635-2.607.645-2.691.943-8.852-6.946-12.071-9.338-.984-3.473,16.086,2.525,33.679,9.593,47.968C1422.21,771.457,1422.315,768.423,1422.52,765.314Z" transform="translate(-1411.559 -719.276)" fill="#434343" fill-rule="evenodd"/>
      <path id="Path_141" data-name="Path 141" d="M1420.609,768.719q-11.244-25.276-6.735-43.341c2.113-8.46,9.264-4.87,6.471,4.057q-4.8,15.341,2.1,38.848-.052,1.087-.09,2.155C1421.715,769.792,1421.127,769.216,1420.609,768.719Z" transform="translate(-1411.648 -719.389)" fill="#ffe599" fill-rule="evenodd"/>
    </g>
    <path id="Path_142" data-name="Path 142" d="M1420.088,737.674c-2.428,10.149-1.367,21.412.934,31.82.658.629,1.78,1.744,2.643,2.626a135.55,135.55,0,0,1,5.277-28.463c2.081-6.509,1.419-10.306-.272-11.994-1.457-1.455-3.877-.849-5.44.118C1421.234,733.013,1420.717,735.043,1420.088,737.674Z" transform="translate(-1.648 -3.249)" fill="#434343" fill-rule="evenodd"/>
    <path id="Path_143" data-name="Path 143" d="M1428.366,743.144c4.5-11.9-4.681-13.55-6.841-6.872-2.8,8.666-2.533,19.368.18,31.912.264-1.5.546-2.975.646-4.043a92.312,92.312,0,0,1,5.063-18.207q.441-1.435.952-2.789Zm-4.075,29.69.194.2-.007-.4C1424.415,772.709,1424.352,772.772,1424.291,772.834Z" transform="translate(-1.721 -3.387)" fill="#ffe599" fill-rule="evenodd"/>
    <path id="Path_144" data-name="Path 144" d="M1460.753,715.236c-2.128-1.3-5.505.181-9.082,2.769-15.867,11.476-23.034,25.108-26.5,44.1-.208,2.213-1.193,6.176-1.193,8.471.474.494,1.451,1.524,1.959,2.078a8.406,8.406,0,0,0,1.906-1.608,123.448,123.448,0,0,1,14.169-10.384,64.793,64.793,0,0,1,14.267-6.956c5.861-1.857,5.176-12.17,3.44-11.919,1.535-1.29.2-8.057-1.508-9.784a.566.566,0,0,0-.327-.166C1461.159,730.568,1462.88,716.534,1460.753,715.236Z" transform="translate(-2.107 -1.853)" fill="#f1c232" fill-rule="evenodd"/>
    <g id="Group_99" data-name="Group 99" transform="translate(1422.393 720.963)">
      <path id="Path_145" data-name="Path 145" d="M1430.23,764.13c4.578-11.942,9.47-22.513,19.809-29.24.07-.046,2.05-1.73,2.108-1.793,5.983-6.591,1.513-13.844-6.96-6.3-12.293,10.94-17.828,28.685-20.55,44.393C1426.356,768.908,1428.23,766.52,1430.23,764.13Z" transform="translate(-1424.558 -723.584)" fill="#434343" fill-rule="evenodd"/>
      <path id="Path_146" data-name="Path 146" d="M1426,769.652q5.6-30.136,20.92-42.914c6.7-5.586,10.353,1.532,2.832,7.092q-12.925,9.557-21.22,32.609C1427.66,767.52,1426.815,768.594,1426,769.652Z" transform="translate(-1424.676 -723.682)" fill="#ffe599" fill-rule="evenodd"/>
      <path id="Path_147" data-name="Path 147" d="M1446.115,737.893c-10.016,8.522-16.6,21.742-21.065,33.821a127.2,127.2,0,0,1,24.684-23.768C1464.248,737.359,1453.295,731.782,1446.115,737.893Z" transform="translate(-1424.594 -724.61)" fill="#434343" fill-rule="evenodd"/>
      <path id="Path_148" data-name="Path 148" d="M1449.621,747.119c-8.262,5.391-16.134,14.573-24.116,26.808l-.149-.16c6.06-16.974,13.383-29.415,22.794-36.234C1453.835,733.416,1460.278,740.166,1449.621,747.119Z" transform="translate(-1424.62 -724.69)" fill="#ffe599" fill-rule="evenodd"/>
      <path id="Path_149" data-name="Path 149" d="M1448.505,748.9c-8.813,5.844-16.887,15.127-23.1,23.262-.258.339-.726.594-.768,1.011-.017.165-.038.5-.083.7.443.46.655.688,1.132,1.2,7.152-6.894,15.4-12.176,24.192-16.7,2.029-1.044,4.387-1.567,5.875-3.267C1459.151,751.224,1458.726,742.122,1448.505,748.9Z" transform="translate(-1424.55 -725.577)" fill="#434343" fill-rule="evenodd"/>
      <path id="Path_150" data-name="Path 150" d="M1451.822,756.648a86.666,86.666,0,0,0-26.741,17.875l-.086-.091q12.29-16.389,23.023-23.9C1458.55,743.151,1459.1,753.6,1451.822,756.648Z" transform="translate(-1424.589 -725.706)" fill="#ffe599" fill-rule="evenodd"/>
    </g>
  </g>
</svg>
