<svg width="42" height="42" viewBox="0 0 42 42" fill="none" xmlns="http://www.w3.org/2000/svg">
<path d="M20.9998 0.166626C16.8794 0.166626 12.8515 1.38848 9.42547 3.67768C5.99944 5.96687 3.32918 9.22059 1.75236 13.0274C0.175531 16.8342 -0.237039 21.0231 0.56682 25.0643C1.37068 29.1056 3.35486 32.8178 6.26846 35.7314C9.18205 38.6449 12.8942 40.6291 16.9355 41.433C20.9767 42.2369 25.1656 41.8243 28.9724 40.2475C32.7792 38.6706 36.0329 36.0004 38.3221 32.5743C40.6113 29.1483 41.8332 25.1204 41.8332 21C41.8269 15.4766 39.6299 10.1812 35.7243 6.27555C31.8186 2.36991 26.5233 0.172945 20.9998 0.166626ZM31.8478 16.0276L18.9571 28.9183C18.7637 29.1118 18.5341 29.2652 18.2814 29.37C18.0286 29.4747 17.7577 29.5286 17.4842 29.5286C17.2106 29.5286 16.9397 29.4747 16.6869 29.37C16.4342 29.2652 16.2046 29.1118 16.0112 28.9183L10.1519 23.0589C9.76533 22.6674 9.5493 22.1389 9.55102 21.5887C9.55274 21.0385 9.77206 20.5113 10.1611 20.1222C10.5502 19.7332 11.0773 19.5138 11.6275 19.5121C12.1777 19.5103 12.7063 19.7263 13.0978 20.1129L17.4842 24.4993L28.9019 13.0817C29.2934 12.6951 29.822 12.4791 30.3722 12.4808C30.9224 12.4826 31.4495 12.7019 31.8386 13.091C32.2276 13.48 32.447 14.0072 32.4487 14.5574C32.4504 15.1076 32.2344 15.6361 31.8478 16.0276Z" fill="#52B788"/>
</svg>
