<svg width="47" height="32" viewBox="0 0 47 32" fill="none" xmlns="http://www.w3.org/2000/svg">
<path fill-rule="evenodd" clip-rule="evenodd" d="M13.4004 21.9068H10.1464L7.70622 12.5975C7.5904 12.1693 7.34448 11.7907 6.98274 11.6123C6.07999 11.1639 5.08521 10.807 4 10.627V10.2686H9.24201C9.96548 10.2686 10.5081 10.807 10.5985 11.4323L11.8646 18.1474L15.1171 10.2686H18.2807L13.4004 21.9068ZM20.09 21.9068H17.0168L19.5474 10.2686H22.6206L20.09 21.9068ZM26.5952 13.4925C26.6856 12.8657 27.2282 12.5073 27.8612 12.5073C28.856 12.4173 29.9396 12.5973 30.844 13.0441L31.3866 10.5384C30.4822 10.18 29.4875 10 28.5847 10C25.602 10 23.4315 11.6121 23.4315 13.8494C23.4315 15.5514 24.9689 16.4451 26.0541 16.9835C27.2282 17.5203 27.6804 17.8787 27.5899 18.4156C27.5899 19.2208 26.6856 19.5792 25.7828 19.5792C24.6976 19.5792 23.6124 19.3108 22.6192 18.8624L22.0766 21.3697C23.1618 21.8166 24.3359 21.9965 25.4211 21.9965C28.7656 22.085 30.844 20.4745 30.844 18.0572C30.844 15.013 26.5952 14.8346 26.5952 13.4925ZM41.6006 21.9068L39.1604 10.2686H36.5394C35.9968 10.2686 35.4542 10.627 35.2733 11.1639L30.7548 21.9068H33.9184L34.5499 20.2063H38.437L38.7987 21.9068H41.6006ZM36.9908 13.402L37.8936 17.7883H35.363L36.9908 13.402Z" fill="#172B85"/>
</svg>
